<?xml version="1.0" standalone="no"?><!DOCTYPE svg PUBLIC "-//W3C//DTD SVG 1.1//EN" "http://www.w3.org/Graphics/SVG/1.1/DTD/svg11.dtd"><svg t="1619631628217" class="icon" viewBox="0 0 1024 1024" version="1.1" xmlns="http://www.w3.org/2000/svg" p-id="14302" xmlns:xlink="http://www.w3.org/1999/xlink" width="200" height="200"><defs><style type="text/css"></style></defs><path d="M1007.32768184 510.47742854c-1.60431537 41.71221175-2.49560243 83.60268228-5.16946226 125.31489405-3.74340435 57.75537085-12.29975478 114.61945601-30.48200149 170.05748044-26.56033971 80.5723076-80.75056503 133.15821618-159.18378502 162.74893194-31.729802 11.94323992-64.70740592 18.00398929-97.86326726 23.52996642-60.2509733 10.16066714-121.21497623 12.29975478-182.17897778 12.29975478-43.6730433 0-87.34608525-0.35651482-131.01912994-2.67385987-61.67703258-3.2086321-122.81929159-10.33892459-182.17897782-29.59071577-47.59470369-15.33012945-88.77214457-40.10789638-121.21497623-78.61147603C72.01153519 862.7138882 54.72057558 827.06242441 43.84687875 788.55884341c-7.66506472-27.27336939-13.90407014-55.25976841-17.46921706-83.42442489-4.99120488-39.39486674-7.84332214-78.96799224-10.16066715-118.54111636-1.78257278-31.19503113-1.42605795-62.39006087-1.42605795-93.58509068-0.1782574-51.15985062 2.13908761-102.31969986 7.48680732-153.30129444 4.81294746-44.56432899 13.19104183-88.41562974 27.80814163-130.66261374 26.56033971-76.115875 77.72019035-128.88004096 153.30129308-157.40121085 33.69063357-12.65626959 68.62906766-21.03436397 104.2805314-26.20382626 84.67222539-12.47801218 169.87922443-13.7258141 255.26447811-11.58672509 33.69063357 0.89128708 67.38126577 2.67385984 100.89364191 5.52597573 55.97279808 4.99120488 110.87605167 15.33012945 163.64021763 36.186236 73.79852996 29.41245697 120.14543175 83.9591971 144.92320007 157.93598312 11.5867251 34.58191927 19.25178984 70.05512561 23.70822385 106.24136161 7.84332214 63.4596054 10.87369683 126.91921076 11.23021025 190.73533098z" p-id="14303"></path></svg>